<?xml version="1.0" encoding="UTF-8" standalone="no"?>
<!-- Generator: Adobe Illustrator 18.1.1, SVG Export Plug-In . SVG Version: 6.00 Build 0)  -->

<svg
   xmlns:dc="http://purl.org/dc/elements/1.1/"
   xmlns:cc="http://creativecommons.org/ns#"
   xmlns:rdf="http://www.w3.org/1999/02/22-rdf-syntax-ns#"
   xmlns:svg="http://www.w3.org/2000/svg"
   xmlns="http://www.w3.org/2000/svg"
   xmlns:sodipodi="http://sodipodi.sourceforge.net/DTD/sodipodi-0.dtd"
   xmlns:inkscape="http://www.inkscape.org/namespaces/inkscape"
   version="1.1"
   id="Capa_1"
   x="0px"
   y="0px"
   viewBox="0 0 24.332 24.332"
   style="enable-background:new 0 0 24.332 24.332;"
   xml:space="preserve"
   inkscape:version="0.48.5 r10040"
   width="100%"
   height="100%"
   sodipodi:docname="web42.svg"><metadata
     id="metadata47"><rdf:RDF><cc:Work
         rdf:about=""><dc:format>image/svg+xml</dc:format><dc:type
           rdf:resource="http://purl.org/dc/dcmitype/StillImage" /></cc:Work></rdf:RDF></metadata><defs
     id="defs45" /><sodipodi:namedview
     pagecolor="#ffffff"
     bordercolor="#666666"
     borderopacity="1"
     objecttolerance="10"
     gridtolerance="10"
     guidetolerance="10"
     inkscape:pageopacity="0"
     inkscape:pageshadow="2"
     inkscape:window-width="1274"
     inkscape:window-height="1387"
     id="namedview43"
     showgrid="false"
     inkscape:zoom="13.716686"
     inkscape:cx="11.455324"
     inkscape:cy="12.87488"
     inkscape:window-x="0"
     inkscape:window-y="25"
     inkscape:window-maximized="0"
     inkscape:current-layer="Capa_1" /><path
     d="M 3.607,17.11 C 1.618,17.11 0,18.726 0,20.717 c 0,1.984 1.618,3.604 3.607,3.604 1.989,0 3.607,-1.619 3.607,-3.604 0,-1.991 -1.618,-3.607 -3.607,-3.607 z"
     id="path6"
     inkscape:connector-curvature="0"
     style="fill:#cc0000;fill-opacity:1" /><path
     d="M 0.375,7.951 C 0.169,7.951 0,8.12 0,8.328 v 4.578 c 0,0.206 0.169,0.374 0.375,0.374 5.879,0 10.665,4.784 10.665,10.665 0,0.205 0.166,0.375 0.375,0.375 h 4.581 0.016 c 0.209,0 0.377,-0.17 0.377,-0.375 L 16.371,23.828 C 16.305,15.064 9.152,7.951 0.375,7.951 z"
     id="path8"
     inkscape:connector-curvature="0"
     style="fill:#f57900;fill-opacity:1" /><path
     d="M 24.311,23.828 C 24.246,10.681 13.531,0.01 0.375,0.01 0.169,0.01 0,0.179 0,0.387 v 4.711 c 0,0.207 0.169,0.375 0.375,0.375 10.186,0 18.472,8.287 18.472,18.473 0,0.205 0.168,0.375 0.373,0.375 h 4.713 0.02 c 0.205,0 0.379,-0.17 0.379,-0.375 l -0.021,-0.118 z"
     id="path10"
     inkscape:connector-curvature="0"
     style="fill:#f57900;fill-opacity:1" /><g
     id="Capa_1_3_" /><g
     id="g13" /><g
     id="g15" /><g
     id="g17" /><g
     id="g19" /><g
     id="g21" /><g
     id="g23" /><g
     id="g25" /><g
     id="g27" /><g
     id="g29" /><g
     id="g31" /><g
     id="g33" /><g
     id="g35" /><g
     id="g37" /><g
     id="g39" /><g
     id="g41" /></svg>